<svg width="90" height="56" viewBox="0 0 90 56" fill="none" xmlns="http://www.w3.org/2000/svg">
<path d="M51.0839 24.067C50.2839 26.01 49.3749 29.108 53.5119 31.509C57.1809 33.638 65.7039 37.021 67.0059 37.685C68.3079 38.349 68.8709 39.285 67.3509 39.935C69.3359 39.271 69.7819 38.535 69.7819 37.728C69.7819 37.091 69.503 36.261 66.457 34.921C63.411 33.581 56.357 30.444 53.602 28.751C50.847 27.058 50.6179 25.713 51.0839 24.067Z" fill="white"/>
<path d="M67.7379 38.153C68.4529 38.744 68.5379 39.427 67.3499 39.934C69.3349 39.27 69.7809 38.534 69.7809 37.727C69.783 37.5337 69.7463 37.342 69.6729 37.1632C69.5996 36.9844 69.4911 36.8221 69.3539 36.686L67.7379 38.153Z" fill="white"/>
<path d="M51.0829 24.067C50.6543 24.8601 50.4254 25.7458 50.416 26.6473C50.4065 27.5488 50.617 28.4391 51.029 29.241L52.051 27.597C51.5366 27.1869 51.1657 26.6241 50.9918 25.9897C50.8178 25.3553 50.8497 24.6821 51.0829 24.067Z" fill="white"/>
<path d="M63.9199 30.305C68.3259 32.199 73.9789 34.326 71.6359 37.032C73.2969 35.58 73.2869 34.488 73.2869 33.91C73.2869 31.235 68.7569 29.756 62.7459 27.11C58.5549 25.266 51.2099 22.034 55.0189 18.643C54.5259 19.023 52.3189 20.802 52.3189 22.4C52.2739 24.779 56.0969 26.94 63.9199 30.305Z" fill="white"/>
<path d="M54.6888 22.329C54.4318 22.0832 54.2333 21.7827 54.1083 21.4497C53.9832 21.1167 53.9347 20.7599 53.9664 20.4056C53.9981 20.0513 54.1092 19.7087 54.2914 19.4033C54.4736 19.0978 54.7223 18.8372 55.0189 18.641C54.5259 19.021 52.3188 20.8 52.3188 22.398C52.3274 23.0091 52.5464 23.5985 52.9388 24.067L54.6888 22.329Z" fill="white"/>
<path d="M71.1629 34C72.2219 34.929 72.5839 35.929 71.6349 37.025C73.2959 35.573 73.2859 34.481 73.2859 33.903C73.2742 33.2816 73.0351 32.686 72.614 32.229L71.1629 34Z" fill="white"/>
<path d="M68.7861 19.127C68.7356 19.1032 68.6808 19.0899 68.6251 19.088C68.5251 19.094 68.567 19.161 68.608 19.199C68.719 19.299 69.008 19.404 69.018 19.323C69.018 19.27 68.8981 19.176 68.7861 19.123" fill="white"/>
<path d="M68.113 18.614C68.0607 18.5921 68.0047 18.5802 67.9479 18.579C67.8479 18.587 67.884 18.653 67.937 18.696C68.064 18.796 68.356 18.877 68.337 18.785C68.328 18.737 68.224 18.658 68.109 18.614" fill="white"/>
<path d="M67.4259 18.127C67.375 18.1082 67.3211 18.0988 67.2669 18.099C67.1669 18.109 67.2019 18.17 67.2499 18.209C67.3729 18.309 67.6799 18.381 67.6629 18.288C67.6539 18.239 67.5499 18.168 67.4259 18.127Z" fill="white"/>
<path d="M66.7269 17.669C66.6763 17.6538 66.6237 17.6464 66.5709 17.647C66.4709 17.657 66.5059 17.711 66.5429 17.741C66.6549 17.834 66.9788 17.904 66.9628 17.812C66.9538 17.76 66.8349 17.699 66.7269 17.669Z" fill="white"/>
<path d="M67.461 18.662C67.4105 18.6466 67.3572 18.6425 67.305 18.65C67.215 18.667 67.2209 18.73 67.3179 18.797C67.4619 18.897 67.735 18.932 67.707 18.828C67.692 18.771 67.5789 18.695 67.4599 18.662" fill="white"/>
<path d="M66.7569 18.193C66.7035 18.177 66.6471 18.1729 66.5919 18.181C66.4809 18.208 66.5399 18.281 66.6069 18.325C66.7479 18.415 67.0069 18.448 66.9989 18.353C66.9929 18.297 66.8839 18.225 66.7569 18.193Z" fill="white"/>
<path d="M66.077 18.235C66.0239 18.2242 65.9689 18.2266 65.917 18.242C65.817 18.277 65.844 18.36 65.967 18.421C66.145 18.509 66.373 18.48 66.331 18.375C66.3014 18.3347 66.2635 18.3013 66.2198 18.277C66.1762 18.2527 66.1278 18.238 66.078 18.234" fill="white"/>
<path d="M66.043 17.75C65.9888 17.736 65.9323 17.7333 65.877 17.742C65.762 17.771 65.8271 17.842 65.8951 17.881C66.0411 17.963 66.302 17.981 66.277 17.881C66.264 17.831 66.163 17.773 66.043 17.746" fill="white"/>
<path d="M66.0659 17.265C66.0074 17.2484 65.9467 17.2407 65.8859 17.242C65.7789 17.253 65.8239 17.302 65.8409 17.316C65.9539 17.416 66.284 17.467 66.272 17.383C66.266 17.344 66.1819 17.296 66.0659 17.265Z" fill="white"/>
<path d="M65.331 17.804C65.2763 17.7942 65.2202 17.7973 65.167 17.813C65.067 17.847 65.094 17.93 65.214 17.983C65.368 18.051 65.606 18.032 65.576 17.933C65.559 17.876 65.453 17.821 65.331 17.804Z" fill="white"/>
<path d="M64.5919 17.414C64.5378 17.4075 64.4829 17.4126 64.4309 17.429C64.3219 17.473 64.3639 17.544 64.4659 17.585C64.6239 17.649 64.866 17.625 64.833 17.526C64.815 17.472 64.714 17.426 64.593 17.414" fill="white"/>
<path d="M65.3239 17.349C65.2697 17.3392 65.2142 17.3392 65.16 17.349C65.053 17.376 65.0939 17.433 65.1479 17.465C65.2829 17.546 65.5839 17.565 65.5539 17.465C65.5399 17.419 65.4409 17.365 65.3249 17.348" fill="white"/>
<path d="M63.8669 17.066C63.8082 17.0609 63.7491 17.0673 63.6929 17.085C63.5739 17.132 63.6319 17.185 63.6849 17.212C63.8279 17.279 64.1159 17.252 64.0789 17.154C64.0619 17.11 63.9789 17.073 63.8669 17.066Z" fill="white"/>
<path d="M64.6199 16.992C64.5614 16.9818 64.5015 16.9818 64.4429 16.992C64.3649 17.009 64.3479 17.046 64.4019 17.083C64.5239 17.167 64.836 17.171 64.825 17.089C64.82 17.049 64.7309 17.006 64.6199 16.989" fill="white"/>
<path d="M65.359 16.9C65.3052 16.888 65.2501 16.8833 65.195 16.886C65.104 16.895 65.113 16.922 65.136 16.943C65.229 17.028 65.58 17.072 65.568 16.997C65.561 16.957 65.455 16.918 65.36 16.897" fill="white"/>
<path d="M63.8919 16.689C63.8362 16.6833 63.78 16.6857 63.7249 16.696C63.6099 16.724 63.6569 16.762 63.6749 16.774C63.7829 16.844 64.103 16.839 64.098 16.768C64.098 16.733 64.0069 16.699 63.8919 16.69" fill="white"/>
<path d="M63.111 16.77C63.0547 16.7686 62.9986 16.7767 62.9451 16.794C62.8311 16.839 62.877 16.885 62.922 16.905C63.052 16.964 63.355 16.93 63.322 16.839C63.307 16.8 63.2221 16.771 63.112 16.77" fill="white"/>
<path d="M64.6659 16.595C64.612 16.5864 64.5574 16.5834 64.5029 16.586C64.4129 16.595 64.4169 16.616 64.4359 16.633C64.5179 16.702 64.8789 16.733 64.8659 16.672C64.8599 16.644 64.7799 16.613 64.6659 16.596" fill="white"/>
<path d="M62.385 16.537C62.331 16.5381 62.2774 16.5469 62.2259 16.563C62.1449 16.592 62.1439 16.634 62.1899 16.656C62.2899 16.706 62.6129 16.668 62.5899 16.588C62.5789 16.545 62.4719 16.534 62.3829 16.537" fill="white"/>
<path d="M63.1999 16.457C63.1418 16.4535 63.0835 16.4565 63.026 16.466C62.926 16.49 62.957 16.52 62.969 16.529C63.05 16.588 63.402 16.572 63.387 16.51C63.381 16.482 63.3089 16.462 63.1999 16.457Z" fill="white"/>
<path d="M63.987 16.358C63.9329 16.3517 63.8784 16.35 63.824 16.353C63.745 16.361 63.7431 16.377 63.7551 16.389C63.8101 16.444 64.182 16.468 64.178 16.416C64.178 16.391 64.078 16.369 63.987 16.358Z" fill="white"/>
<path d="M62.4809 16.289C62.4289 16.2891 62.3771 16.2938 62.326 16.303C62.265 16.316 62.24 16.337 62.264 16.353C62.329 16.398 62.679 16.372 62.675 16.322C62.675 16.294 62.5749 16.286 62.4809 16.288" fill="white"/>
<path d="M61.6799 16.394C61.6212 16.3972 61.5632 16.4076 61.507 16.425C61.441 16.448 61.42 16.481 61.46 16.5C61.539 16.539 61.876 16.494 61.86 16.426C61.854 16.398 61.7859 16.387 61.6799 16.394Z" fill="white"/>
<path d="M63.2939 16.187C63.245 16.1837 63.1959 16.1837 63.147 16.187C63.091 16.187 63.063 16.201 63.073 16.213C63.2084 16.2518 63.3514 16.2563 63.489 16.226C63.489 16.209 63.409 16.192 63.289 16.186" fill="white"/>
<path d="M61.792 16.197C61.7414 16.2 61.691 16.206 61.641 16.215C61.565 16.232 61.566 16.245 61.574 16.251C61.7087 16.2716 61.8464 16.2575 61.9741 16.21C61.9741 16.195 61.897 16.19 61.793 16.196" fill="white"/>
<path d="M60.944 16.389C60.8965 16.3952 60.8497 16.4056 60.8041 16.42C60.7111 16.454 60.742 16.474 60.749 16.477C60.815 16.512 61.149 16.444 61.14 16.397C61.14 16.373 61.0401 16.375 60.9401 16.389" fill="white"/>
<path d="M62.6159 16.09C62.5429 16.09 62.497 16.09 62.478 16.095C62.43 16.095 62.4049 16.105 62.4019 16.112C62.5343 16.1341 62.6695 16.1341 62.8019 16.112C62.74 16.0977 62.6765 16.0919 62.613 16.095" fill="white"/>
<path d="M61.9789 16.07L61.835 16.08C61.8081 16.0815 61.7813 16.0848 61.7549 16.09C61.8849 16.0901 62.0148 16.0827 62.1439 16.068C62.089 16.0637 62.0338 16.0637 61.9789 16.068" fill="white"/>
<path d="M61.125 16.183C61.059 16.191 61.0079 16.201 60.9829 16.206C60.9319 16.217 60.9099 16.224 60.9049 16.23C61.0365 16.2348 61.168 16.2176 61.2939 16.179C61.2379 16.1716 61.1811 16.1716 61.125 16.179" fill="white"/>
<path d="M60.2689 16.399C60.2221 16.4081 60.1761 16.4201 60.1309 16.435C60.0529 16.462 60.0509 16.473 60.0629 16.478C60.1179 16.502 60.4569 16.424 60.4459 16.39C60.4459 16.377 60.363 16.381 60.27 16.399" fill="white"/>
<path d="M60.461 16.249L60.3229 16.276C60.299 16.2804 60.2752 16.2861 60.2519 16.293C60.3739 16.2772 60.4951 16.2552 60.6149 16.227C60.5629 16.2317 60.5111 16.2394 60.4599 16.25" fill="white"/>
<path d="M59.5979 16.469C59.5269 16.487 59.478 16.503 59.46 16.509C59.393 16.532 59.3909 16.538 59.3889 16.541C59.5137 16.5281 59.6359 16.496 59.751 16.446C59.6992 16.4489 59.6478 16.4576 59.5979 16.472" fill="white"/>
<path d="M58.9399 16.629L58.8059 16.673C58.7828 16.68 58.7601 16.6883 58.7379 16.698C58.7629 16.698 59.0699 16.598 59.0829 16.588C59.0729 16.588 58.9999 16.611 58.9399 16.629Z" fill="white"/>
<path d="M70.7821 19.017C70.6197 19.0168 70.4608 19.0648 70.3257 19.1549C70.1905 19.245 70.0851 19.3731 70.0228 19.5231C69.9605 19.6731 69.9441 19.8382 69.9757 19.9976C70.0072 20.1569 70.0854 20.3033 70.2002 20.4182C70.3149 20.5331 70.4612 20.6114 70.6205 20.6432C70.7797 20.6749 70.9449 20.6587 71.0949 20.5966C71.245 20.5345 71.3733 20.4292 71.4636 20.2942C71.5539 20.1592 71.602 20.0004 71.602 19.838C71.6018 19.6205 71.5154 19.412 71.3617 19.2581C71.208 19.1042 70.9996 19.0175 70.7821 19.017Z" fill="white"/>
<path d="M70.418 19.416C70.2436 19.2313 70.0411 19.0754 69.818 18.954C69.403 18.71 68.747 18.584 68.355 18.341C67.311 17.5651 66.2159 16.8605 65.077 16.232C67.2777 16.6697 69.3197 17.6926 70.988 19.193C71.274 19.429 70.884 19.86 70.418 19.416Z" fill="white"/>
<path d="M71.298 19.483C72.2961 20.4439 73.1253 21.5659 73.751 22.802C73.33 22.476 71.9401 22.018 71.8781 20.938C71.8491 20.438 71.387 20.181 71.303 20.079C70.978 19.68 71.208 19.399 71.298 19.483Z" fill="white"/>
<path d="M70.248 20.457C69.8704 20.0578 69.5476 19.6103 69.288 19.126C69.231 19.026 69.182 19.144 69.249 18.926C69.316 18.708 69.3489 18.892 69.4429 18.926C69.8735 19.0791 70.3381 19.1095 70.785 19.014C70.6393 19.5068 70.4599 19.9889 70.248 20.457Z" fill="white"/>
<path d="M17.0839 24.067C16.2839 26.01 15.3749 29.108 19.5119 31.509C23.1809 33.638 31.7039 37.021 33.0059 37.685C34.3079 38.349 34.8709 39.285 33.3509 39.935C35.3359 39.271 35.7819 38.535 35.7819 37.728C35.7819 37.091 35.503 36.261 32.457 34.921C29.411 33.581 22.357 30.444 19.602 28.751C16.847 27.058 16.6179 25.713 17.0839 24.067Z" fill="black"/>
<path d="M33.7379 38.153C34.4529 38.744 34.5379 39.427 33.3499 39.934C35.3349 39.27 35.7809 38.534 35.7809 37.727C35.783 37.5337 35.7463 37.342 35.6729 37.1632C35.5996 36.9844 35.4911 36.8221 35.3539 36.686L33.7379 38.153Z" fill="black"/>
<path d="M17.0829 24.067C16.6543 24.8601 16.4254 25.7458 16.416 26.6473C16.4065 27.5488 16.617 28.4391 17.029 29.241L18.051 27.597C17.5366 27.1869 17.1657 26.6241 16.9918 25.9897C16.8178 25.3553 16.8497 24.6821 17.0829 24.067Z" fill="black"/>
<path d="M29.9199 30.305C34.3259 32.199 39.9789 34.326 37.6359 37.032C39.2969 35.58 39.2869 34.488 39.2869 33.91C39.2869 31.235 34.7569 29.756 28.7459 27.11C24.5549 25.266 17.2099 22.034 21.0189 18.643C20.5259 19.023 18.3189 20.802 18.3189 22.4C18.2739 24.779 22.0969 26.94 29.9199 30.305Z" fill="black"/>
<path d="M20.6888 22.329C20.4318 22.0832 20.2333 21.7827 20.1083 21.4497C19.9832 21.1167 19.9347 20.7599 19.9664 20.4056C19.9981 20.0513 20.1092 19.7087 20.2914 19.4033C20.4736 19.0978 20.7223 18.8372 21.0189 18.641C20.5259 19.021 18.3188 20.8 18.3188 22.398C18.3274 23.0091 18.5464 23.5985 18.9388 24.067L20.6888 22.329Z" fill="black"/>
<path d="M37.1629 34C38.2219 34.929 38.5839 35.929 37.6349 37.025C39.2959 35.573 39.2859 34.481 39.2859 33.903C39.2742 33.2816 39.0351 32.686 38.614 32.229L37.1629 34Z" fill="black"/>
<path d="M34.7861 19.127C34.7356 19.1032 34.6808 19.0899 34.6251 19.088C34.5251 19.094 34.567 19.161 34.608 19.199C34.719 19.299 35.008 19.404 35.018 19.323C35.018 19.27 34.8981 19.176 34.7861 19.123" fill="black"/>
<path d="M34.113 18.614C34.0607 18.5921 34.0047 18.5802 33.9479 18.579C33.8479 18.587 33.884 18.653 33.937 18.696C34.064 18.796 34.356 18.877 34.337 18.785C34.328 18.737 34.224 18.658 34.109 18.614" fill="black"/>
<path d="M33.4259 18.127C33.375 18.1082 33.3211 18.0988 33.2669 18.099C33.1669 18.109 33.2019 18.17 33.2499 18.209C33.3729 18.309 33.6799 18.381 33.6629 18.288C33.6539 18.239 33.5499 18.168 33.4259 18.127Z" fill="black"/>
<path d="M32.7269 17.669C32.6763 17.6538 32.6237 17.6464 32.5709 17.647C32.4709 17.657 32.5059 17.711 32.5429 17.741C32.6549 17.834 32.9788 17.904 32.9628 17.812C32.9538 17.76 32.8349 17.699 32.7269 17.669Z" fill="black"/>
<path d="M33.461 18.662C33.4105 18.6466 33.3572 18.6425 33.305 18.65C33.215 18.667 33.2209 18.73 33.3179 18.797C33.4619 18.897 33.735 18.932 33.707 18.828C33.692 18.771 33.5789 18.695 33.4599 18.662" fill="black"/>
<path d="M32.7569 18.193C32.7035 18.177 32.6471 18.1729 32.5919 18.181C32.4809 18.208 32.5399 18.281 32.6069 18.325C32.7479 18.415 33.0069 18.448 32.9989 18.353C32.9929 18.297 32.8839 18.225 32.7569 18.193Z" fill="black"/>
<path d="M32.077 18.235C32.0239 18.2242 31.9689 18.2266 31.917 18.242C31.817 18.277 31.844 18.36 31.967 18.421C32.145 18.509 32.373 18.48 32.331 18.375C32.3014 18.3347 32.2635 18.3013 32.2198 18.277C32.1762 18.2527 32.1278 18.238 32.078 18.234" fill="black"/>
<path d="M32.043 17.75C31.9888 17.736 31.9323 17.7333 31.877 17.742C31.762 17.771 31.8271 17.842 31.8951 17.881C32.0411 17.963 32.302 17.981 32.277 17.881C32.264 17.831 32.163 17.773 32.043 17.746" fill="black"/>
<path d="M32.0659 17.265C32.0074 17.2484 31.9467 17.2407 31.8859 17.242C31.7789 17.253 31.8239 17.302 31.8409 17.316C31.9539 17.416 32.284 17.467 32.272 17.383C32.266 17.344 32.1819 17.296 32.0659 17.265Z" fill="black"/>
<path d="M31.331 17.804C31.2763 17.7942 31.2202 17.7973 31.167 17.813C31.067 17.847 31.094 17.93 31.214 17.983C31.368 18.051 31.606 18.032 31.576 17.933C31.559 17.876 31.453 17.821 31.331 17.804Z" fill="black"/>
<path d="M30.5919 17.414C30.5378 17.4075 30.4829 17.4126 30.4309 17.429C30.3219 17.473 30.3639 17.544 30.4659 17.585C30.6239 17.649 30.866 17.625 30.833 17.526C30.815 17.472 30.714 17.426 30.593 17.414" fill="black"/>
<path d="M31.3239 17.349C31.2697 17.3392 31.2142 17.3392 31.16 17.349C31.053 17.376 31.0939 17.433 31.1479 17.465C31.2829 17.546 31.5839 17.565 31.5539 17.465C31.5399 17.419 31.4409 17.365 31.3249 17.348" fill="black"/>
<path d="M29.8669 17.066C29.8082 17.0609 29.7491 17.0673 29.6929 17.085C29.5739 17.132 29.6319 17.185 29.6849 17.212C29.8279 17.279 30.1159 17.252 30.0789 17.154C30.0619 17.11 29.9789 17.073 29.8669 17.066Z" fill="black"/>
<path d="M30.6199 16.992C30.5614 16.9818 30.5015 16.9818 30.4429 16.992C30.3649 17.009 30.3479 17.046 30.4019 17.083C30.5239 17.167 30.836 17.171 30.825 17.089C30.82 17.049 30.7309 17.006 30.6199 16.989" fill="black"/>
<path d="M31.359 16.9C31.3052 16.888 31.2501 16.8833 31.195 16.886C31.104 16.895 31.113 16.922 31.136 16.943C31.229 17.028 31.58 17.072 31.568 16.997C31.561 16.957 31.455 16.918 31.36 16.897" fill="black"/>
<path d="M29.8919 16.689C29.8362 16.6833 29.78 16.6857 29.7249 16.696C29.6099 16.724 29.6569 16.762 29.6749 16.774C29.7829 16.844 30.103 16.839 30.098 16.768C30.098 16.733 30.0069 16.699 29.8919 16.69" fill="black"/>
<path d="M29.111 16.77C29.0547 16.7686 28.9986 16.7767 28.9451 16.794C28.8311 16.839 28.877 16.885 28.922 16.905C29.052 16.964 29.355 16.93 29.322 16.839C29.307 16.8 29.2221 16.771 29.112 16.77" fill="black"/>
<path d="M30.6659 16.595C30.612 16.5864 30.5574 16.5834 30.5029 16.586C30.4129 16.595 30.4169 16.616 30.4359 16.633C30.5179 16.702 30.8789 16.733 30.8659 16.672C30.8599 16.644 30.7799 16.613 30.6659 16.596" fill="black"/>
<path d="M28.385 16.537C28.331 16.5381 28.2774 16.5469 28.2259 16.563C28.1449 16.592 28.1439 16.634 28.1899 16.656C28.2899 16.706 28.6129 16.668 28.5899 16.588C28.5789 16.545 28.4719 16.534 28.3829 16.537" fill="black"/>
<path d="M29.1999 16.457C29.1418 16.4535 29.0835 16.4565 29.026 16.466C28.926 16.49 28.957 16.52 28.969 16.529C29.05 16.588 29.402 16.572 29.387 16.51C29.381 16.482 29.3089 16.462 29.1999 16.457Z" fill="black"/>
<path d="M29.987 16.358C29.9329 16.3517 29.8784 16.35 29.824 16.353C29.745 16.361 29.7431 16.377 29.7551 16.389C29.8101 16.444 30.182 16.468 30.178 16.416C30.178 16.391 30.078 16.369 29.987 16.358Z" fill="black"/>
<path d="M28.4809 16.289C28.4289 16.2891 28.3771 16.2938 28.326 16.303C28.265 16.316 28.24 16.337 28.264 16.353C28.329 16.398 28.679 16.372 28.675 16.322C28.675 16.294 28.5749 16.286 28.4809 16.288" fill="black"/>
<path d="M27.6799 16.394C27.6212 16.3972 27.5632 16.4076 27.507 16.425C27.441 16.448 27.42 16.481 27.46 16.5C27.539 16.539 27.876 16.494 27.86 16.426C27.854 16.398 27.7859 16.387 27.6799 16.394Z" fill="black"/>
<path d="M29.2939 16.187C29.245 16.1837 29.1959 16.1837 29.147 16.187C29.091 16.187 29.063 16.201 29.073 16.213C29.2084 16.2518 29.3514 16.2563 29.489 16.226C29.489 16.209 29.409 16.192 29.289 16.186" fill="black"/>
<path d="M27.792 16.197C27.7414 16.2 27.691 16.206 27.641 16.215C27.565 16.232 27.566 16.245 27.574 16.251C27.7087 16.2716 27.8464 16.2575 27.9741 16.21C27.9741 16.195 27.897 16.19 27.793 16.196" fill="black"/>
<path d="M26.944 16.389C26.8965 16.3952 26.8497 16.4056 26.8041 16.42C26.7111 16.454 26.742 16.474 26.749 16.477C26.815 16.512 27.149 16.444 27.14 16.397C27.14 16.373 27.0401 16.375 26.9401 16.389" fill="black"/>
<path d="M28.6159 16.09C28.5429 16.09 28.497 16.09 28.478 16.095C28.43 16.095 28.4049 16.105 28.4019 16.112C28.5343 16.1341 28.6695 16.1341 28.8019 16.112C28.74 16.0977 28.6765 16.0919 28.613 16.095" fill="black"/>
<path d="M27.9789 16.07L27.835 16.08C27.8081 16.0815 27.7813 16.0848 27.7549 16.09C27.8849 16.0901 28.0148 16.0827 28.1439 16.068C28.089 16.0637 28.0338 16.0637 27.9789 16.068" fill="black"/>
<path d="M27.125 16.183C27.059 16.191 27.0079 16.201 26.9829 16.206C26.9319 16.217 26.9099 16.224 26.9049 16.23C27.0365 16.2348 27.168 16.2176 27.2939 16.179C27.2379 16.1716 27.1811 16.1716 27.125 16.179" fill="black"/>
<path d="M26.2689 16.399C26.2221 16.4081 26.1761 16.4201 26.1309 16.435C26.0529 16.462 26.0509 16.473 26.0629 16.478C26.1179 16.502 26.4569 16.424 26.4459 16.39C26.4459 16.377 26.363 16.381 26.27 16.399" fill="black"/>
<path d="M26.461 16.249L26.3229 16.276C26.299 16.2804 26.2752 16.2861 26.2519 16.293C26.3739 16.2772 26.4951 16.2552 26.6149 16.227C26.5629 16.2317 26.5111 16.2394 26.4599 16.25" fill="black"/>
<path d="M25.5979 16.469C25.5269 16.487 25.478 16.503 25.46 16.509C25.393 16.532 25.3909 16.538 25.3889 16.541C25.5137 16.5281 25.6359 16.496 25.751 16.446C25.6992 16.4489 25.6478 16.4576 25.5979 16.472" fill="black"/>
<path d="M24.9399 16.629L24.8059 16.673C24.7828 16.68 24.7601 16.6883 24.7379 16.698C24.7629 16.698 25.0699 16.598 25.0829 16.588C25.0729 16.588 24.9999 16.611 24.9399 16.629Z" fill="black"/>
<path d="M36.7821 19.017C36.6197 19.0168 36.4608 19.0648 36.3257 19.1549C36.1905 19.245 36.0851 19.3731 36.0228 19.5231C35.9605 19.6731 35.9441 19.8382 35.9757 19.9976C36.0072 20.1569 36.0854 20.3033 36.2002 20.4182C36.3149 20.5331 36.4612 20.6114 36.6205 20.6432C36.7797 20.6749 36.9449 20.6587 37.0949 20.5966C37.245 20.5345 37.3733 20.4292 37.4636 20.2942C37.5539 20.1592 37.602 20.0004 37.602 19.838C37.6018 19.6205 37.5154 19.412 37.3617 19.2581C37.208 19.1042 36.9996 19.0175 36.7821 19.017Z" fill="black"/>
<path d="M36.418 19.416C36.2436 19.2313 36.0411 19.0754 35.818 18.954C35.403 18.71 34.747 18.584 34.355 18.341C33.311 17.5651 32.2159 16.8605 31.077 16.232C33.2777 16.6697 35.3197 17.6926 36.988 19.193C37.274 19.429 36.884 19.86 36.418 19.416Z" fill="black"/>
<path d="M37.298 19.483C38.2961 20.4439 39.1253 21.5659 39.751 22.802C39.33 22.476 37.9401 22.018 37.8781 20.938C37.8491 20.438 37.387 20.181 37.303 20.079C36.978 19.68 37.208 19.399 37.298 19.483Z" fill="black"/>
<path d="M36.248 20.457C35.8704 20.0578 35.5476 19.6103 35.288 19.126C35.231 19.026 35.182 19.144 35.249 18.926C35.316 18.708 35.3489 18.892 35.4429 18.926C35.8735 19.0791 36.3381 19.1095 36.785 19.014C36.6393 19.5068 36.4599 19.9889 36.248 20.457Z" fill="black"/>
<rect x="0.5" y="0.5" width="89" height="55" rx="4.5" stroke="#7B61FF" stroke-dasharray="10 5"/>
</svg>
